<mxfile host="Electron" agent="Mozilla/5.0 (Windows NT 10.0; Win64; x64) AppleWebKit/537.36 (KHTML, like Gecko) draw.io/24.7.17 Chrome/128.0.6613.36 Electron/32.0.1 Safari/537.36" version="24.7.17" pages="2">
  <diagram name="Block" id="6Y8HhWBwhq3JeEBKilDZ">
    <mxGraphModel dx="1434" dy="1236" grid="1" gridSize="10" guides="1" tooltips="1" connect="1" arrows="1" fold="1" page="0" pageScale="1" pageWidth="850" pageHeight="1100" math="0" shadow="0">
      <root>
        <mxCell id="0" />
        <mxCell id="1" parent="0" />
        <mxCell id="y41tXXextySbHWO44SuQ-2" value="Block v1" style="swimlane;whiteSpace=wrap;html=1;hachureGap=4;fontFamily=Helvetica;rounded=0;" vertex="1" parent="1">
          <mxGeometry x="117.5" y="70" width="512.5" height="660" as="geometry" />
        </mxCell>
        <mxCell id="XYubf2Ua6owYs9ooaSZA-2" style="edgeStyle=orthogonalEdgeStyle;rounded=0;hachureGap=4;orthogonalLoop=1;jettySize=auto;html=1;fontFamily=Helvetica;" parent="y41tXXextySbHWO44SuQ-2" source="XYubf2Ua6owYs9ooaSZA-1" edge="1">
          <mxGeometry relative="1" as="geometry">
            <mxPoint x="92.5" y="239.9999999999999" as="targetPoint" />
          </mxGeometry>
        </mxCell>
        <mxCell id="XYubf2Ua6owYs9ooaSZA-5" value="if empty" style="edgeLabel;html=1;align=center;verticalAlign=middle;resizable=0;points=[];hachureGap=4;fontFamily=Helvetica;rounded=0;" parent="XYubf2Ua6owYs9ooaSZA-2" vertex="1" connectable="0">
          <mxGeometry x="-0.4045" y="2" relative="1" as="geometry">
            <mxPoint y="-2" as="offset" />
          </mxGeometry>
        </mxCell>
        <mxCell id="XYubf2Ua6owYs9ooaSZA-3" style="edgeStyle=orthogonalEdgeStyle;rounded=0;hachureGap=4;orthogonalLoop=1;jettySize=auto;html=1;fontFamily=Helvetica;" parent="y41tXXextySbHWO44SuQ-2" source="XYubf2Ua6owYs9ooaSZA-1" edge="1">
          <mxGeometry relative="1" as="geometry">
            <mxPoint x="270" y="280" as="targetPoint" />
          </mxGeometry>
        </mxCell>
        <mxCell id="XYubf2Ua6owYs9ooaSZA-4" style="edgeStyle=orthogonalEdgeStyle;rounded=0;hachureGap=4;orthogonalLoop=1;jettySize=auto;html=1;fontFamily=Helvetica;entryX=0.5;entryY=0;entryDx=0;entryDy=0;" parent="y41tXXextySbHWO44SuQ-2" source="XYubf2Ua6owYs9ooaSZA-1" target="XYubf2Ua6owYs9ooaSZA-14" edge="1">
          <mxGeometry relative="1" as="geometry">
            <mxPoint x="452.5" y="229.9999999999999" as="targetPoint" />
          </mxGeometry>
        </mxCell>
        <mxCell id="XYubf2Ua6owYs9ooaSZA-7" value="if crossed" style="edgeLabel;html=1;align=center;verticalAlign=middle;resizable=0;points=[];hachureGap=4;fontFamily=Helvetica;rounded=0;" parent="XYubf2Ua6owYs9ooaSZA-4" vertex="1" connectable="0">
          <mxGeometry x="0.3763" y="-2" relative="1" as="geometry">
            <mxPoint as="offset" />
          </mxGeometry>
        </mxCell>
        <mxCell id="XYubf2Ua6owYs9ooaSZA-1" value="Block gets clicked" style="rhombus;whiteSpace=wrap;html=1;hachureGap=4;fontFamily=Helvetica;rounded=0;" parent="y41tXXextySbHWO44SuQ-2" vertex="1">
          <mxGeometry x="192.5" y="40" width="155" height="140" as="geometry" />
        </mxCell>
        <mxCell id="XYubf2Ua6owYs9ooaSZA-6" value="if filled" style="edgeLabel;html=1;align=center;verticalAlign=middle;resizable=0;points=[];hachureGap=4;fontFamily=Helvetica;rounded=0;" parent="y41tXXextySbHWO44SuQ-2" vertex="1" connectable="0">
          <mxGeometry x="269.9966666666668" y="220.0000000000001" as="geometry" />
        </mxCell>
        <mxCell id="XYubf2Ua6owYs9ooaSZA-17" style="edgeStyle=orthogonalEdgeStyle;rounded=0;hachureGap=4;orthogonalLoop=1;jettySize=auto;html=1;exitX=0.5;exitY=1;exitDx=0;exitDy=0;entryX=0.5;entryY=0;entryDx=0;entryDy=0;fontFamily=Helvetica;" parent="y41tXXextySbHWO44SuQ-2" source="XYubf2Ua6owYs9ooaSZA-8" target="XYubf2Ua6owYs9ooaSZA-15" edge="1">
          <mxGeometry relative="1" as="geometry" />
        </mxCell>
        <mxCell id="XYubf2Ua6owYs9ooaSZA-8" value="set to filled" style="shape=parallelogram;perimeter=parallelogramPerimeter;whiteSpace=wrap;html=1;fixedSize=1;hachureGap=4;fontFamily=Helvetica;rounded=0;" parent="y41tXXextySbHWO44SuQ-2" vertex="1">
          <mxGeometry x="22.5" y="240" width="120" height="60" as="geometry" />
        </mxCell>
        <mxCell id="XYubf2Ua6owYs9ooaSZA-16" style="edgeStyle=orthogonalEdgeStyle;rounded=0;hachureGap=4;orthogonalLoop=1;jettySize=auto;html=1;exitX=0.5;exitY=1;exitDx=0;exitDy=0;fontFamily=Helvetica;" parent="y41tXXextySbHWO44SuQ-2" source="XYubf2Ua6owYs9ooaSZA-13" target="XYubf2Ua6owYs9ooaSZA-15" edge="1">
          <mxGeometry relative="1" as="geometry" />
        </mxCell>
        <mxCell id="XYubf2Ua6owYs9ooaSZA-13" value="set to crossed" style="shape=parallelogram;perimeter=parallelogramPerimeter;whiteSpace=wrap;html=1;fixedSize=1;hachureGap=4;fontFamily=Helvetica;rounded=0;" parent="y41tXXextySbHWO44SuQ-2" vertex="1">
          <mxGeometry x="210" y="280" width="120" height="60" as="geometry" />
        </mxCell>
        <mxCell id="XYubf2Ua6owYs9ooaSZA-18" style="edgeStyle=orthogonalEdgeStyle;rounded=0;hachureGap=4;orthogonalLoop=1;jettySize=auto;html=1;exitX=0.5;exitY=1;exitDx=0;exitDy=0;entryX=0.5;entryY=0;entryDx=0;entryDy=0;fontFamily=Helvetica;" parent="y41tXXextySbHWO44SuQ-2" source="XYubf2Ua6owYs9ooaSZA-14" target="XYubf2Ua6owYs9ooaSZA-15" edge="1">
          <mxGeometry relative="1" as="geometry" />
        </mxCell>
        <mxCell id="XYubf2Ua6owYs9ooaSZA-14" value="set to empty" style="shape=parallelogram;perimeter=parallelogramPerimeter;whiteSpace=wrap;html=1;fixedSize=1;hachureGap=4;fontFamily=Helvetica;rounded=0;" parent="y41tXXextySbHWO44SuQ-2" vertex="1">
          <mxGeometry x="392.5" y="240" width="120" height="60" as="geometry" />
        </mxCell>
        <mxCell id="XYubf2Ua6owYs9ooaSZA-19" style="edgeStyle=orthogonalEdgeStyle;rounded=0;hachureGap=4;orthogonalLoop=1;jettySize=auto;html=1;exitX=0.5;exitY=1;exitDx=0;exitDy=0;fontFamily=Helvetica;" parent="y41tXXextySbHWO44SuQ-2" source="XYubf2Ua6owYs9ooaSZA-15" edge="1">
          <mxGeometry relative="1" as="geometry">
            <mxPoint x="270" y="560" as="targetPoint" />
          </mxGeometry>
        </mxCell>
        <mxCell id="XYubf2Ua6owYs9ooaSZA-15" value="update appearance" style="shape=parallelogram;perimeter=parallelogramPerimeter;whiteSpace=wrap;html=1;fixedSize=1;hachureGap=4;fontFamily=Helvetica;rounded=0;" parent="y41tXXextySbHWO44SuQ-2" vertex="1">
          <mxGeometry x="180" y="440" width="180" height="60" as="geometry" />
        </mxCell>
        <mxCell id="XYubf2Ua6owYs9ooaSZA-20" value="call function passed in with new state and coordinates" style="shape=parallelogram;perimeter=parallelogramPerimeter;whiteSpace=wrap;html=1;fixedSize=1;hachureGap=4;fontFamily=Helvetica;rounded=0;" parent="y41tXXextySbHWO44SuQ-2" vertex="1">
          <mxGeometry x="179" y="560" width="182" height="60" as="geometry" />
        </mxCell>
        <mxCell id="y41tXXextySbHWO44SuQ-3" style="edgeStyle=orthogonalEdgeStyle;rounded=0;hachureGap=4;orthogonalLoop=1;jettySize=auto;html=1;fontFamily=Helvetica;entryX=0;entryY=0.5;entryDx=0;entryDy=0;" edge="1" parent="1" source="y41tXXextySbHWO44SuQ-8" target="y41tXXextySbHWO44SuQ-11">
          <mxGeometry relative="1" as="geometry">
            <mxPoint x="830" y="299.9999999999999" as="targetPoint" />
            <Array as="points">
              <mxPoint x="730" y="155" />
              <mxPoint x="730" y="350" />
            </Array>
          </mxGeometry>
        </mxCell>
        <mxCell id="y41tXXextySbHWO44SuQ-4" value="if empty" style="edgeLabel;html=1;align=center;verticalAlign=middle;resizable=0;points=[];hachureGap=4;fontFamily=Helvetica;rounded=0;" vertex="1" connectable="0" parent="y41tXXextySbHWO44SuQ-3">
          <mxGeometry x="-0.4045" y="2" relative="1" as="geometry">
            <mxPoint x="-2" y="40" as="offset" />
          </mxGeometry>
        </mxCell>
        <mxCell id="y41tXXextySbHWO44SuQ-6" style="edgeStyle=orthogonalEdgeStyle;rounded=0;hachureGap=4;orthogonalLoop=1;jettySize=auto;html=1;fontFamily=Helvetica;entryX=0.5;entryY=0;entryDx=0;entryDy=0;" edge="1" parent="1" source="y41tXXextySbHWO44SuQ-8" target="y41tXXextySbHWO44SuQ-15">
          <mxGeometry relative="1" as="geometry">
            <mxPoint x="1190" y="289.9999999999999" as="targetPoint" />
          </mxGeometry>
        </mxCell>
        <mxCell id="y41tXXextySbHWO44SuQ-7" value="if crossed" style="edgeLabel;html=1;align=center;verticalAlign=middle;resizable=0;points=[];hachureGap=4;fontFamily=Helvetica;rounded=0;" vertex="1" connectable="0" parent="y41tXXextySbHWO44SuQ-6">
          <mxGeometry x="0.3763" y="-2" relative="1" as="geometry">
            <mxPoint as="offset" />
          </mxGeometry>
        </mxCell>
        <mxCell id="y41tXXextySbHWO44SuQ-24" style="edgeStyle=orthogonalEdgeStyle;rounded=0;hachureGap=4;orthogonalLoop=1;jettySize=auto;html=1;exitX=0;exitY=1;exitDx=0;exitDy=0;entryX=0.5;entryY=0;entryDx=0;entryDy=0;fontFamily=Helvetica;" edge="1" parent="1" source="y41tXXextySbHWO44SuQ-8" target="y41tXXextySbHWO44SuQ-11">
          <mxGeometry relative="1" as="geometry">
            <Array as="points">
              <mxPoint x="820" y="178" />
            </Array>
          </mxGeometry>
        </mxCell>
        <mxCell id="y41tXXextySbHWO44SuQ-25" value="if crossed" style="edgeLabel;html=1;align=center;verticalAlign=middle;resizable=0;points=[];hachureGap=4;fontFamily=Helvetica;rounded=0;" vertex="1" connectable="0" parent="y41tXXextySbHWO44SuQ-24">
          <mxGeometry x="0.2369" y="1" relative="1" as="geometry">
            <mxPoint as="offset" />
          </mxGeometry>
        </mxCell>
        <mxCell id="y41tXXextySbHWO44SuQ-26" style="edgeStyle=orthogonalEdgeStyle;rounded=0;hachureGap=4;orthogonalLoop=1;jettySize=auto;html=1;exitX=0.5;exitY=1;exitDx=0;exitDy=0;entryX=0.5;entryY=0;entryDx=0;entryDy=0;fontFamily=Helvetica;" edge="1" parent="1" source="y41tXXextySbHWO44SuQ-8" target="y41tXXextySbHWO44SuQ-13">
          <mxGeometry relative="1" as="geometry" />
        </mxCell>
        <mxCell id="y41tXXextySbHWO44SuQ-8" value="left click" style="rhombus;whiteSpace=wrap;html=1;hachureGap=4;fontFamily=Helvetica;rounded=0;" vertex="1" parent="1">
          <mxGeometry x="840" y="110" width="155" height="90" as="geometry" />
        </mxCell>
        <mxCell id="y41tXXextySbHWO44SuQ-9" value="if filled" style="edgeLabel;html=1;align=center;verticalAlign=middle;resizable=0;points=[];hachureGap=4;fontFamily=Helvetica;rounded=0;" vertex="1" connectable="0" parent="1">
          <mxGeometry x="917.4966666666668" y="290.0000000000001" as="geometry" />
        </mxCell>
        <mxCell id="y41tXXextySbHWO44SuQ-39" style="edgeStyle=orthogonalEdgeStyle;rounded=0;orthogonalLoop=1;jettySize=auto;html=1;entryX=0.5;entryY=0;entryDx=0;entryDy=0;fontFamily=Helvetica;" edge="1" parent="1" source="y41tXXextySbHWO44SuQ-11" target="y41tXXextySbHWO44SuQ-17">
          <mxGeometry relative="1" as="geometry">
            <Array as="points">
              <mxPoint x="820" y="470" />
              <mxPoint x="1008" y="470" />
            </Array>
          </mxGeometry>
        </mxCell>
        <mxCell id="y41tXXextySbHWO44SuQ-11" value="set to filled" style="shape=parallelogram;perimeter=parallelogramPerimeter;whiteSpace=wrap;html=1;fixedSize=1;hachureGap=4;fontFamily=Helvetica;rounded=0;" vertex="1" parent="1">
          <mxGeometry x="760" y="320" width="120" height="60" as="geometry" />
        </mxCell>
        <mxCell id="y41tXXextySbHWO44SuQ-40" style="edgeStyle=orthogonalEdgeStyle;rounded=0;orthogonalLoop=1;jettySize=auto;html=1;entryX=0.5;entryY=0;entryDx=0;entryDy=0;fontFamily=Helvetica;" edge="1" parent="1" source="y41tXXextySbHWO44SuQ-13" target="y41tXXextySbHWO44SuQ-17">
          <mxGeometry relative="1" as="geometry">
            <Array as="points">
              <mxPoint x="917" y="470" />
              <mxPoint x="1008" y="470" />
            </Array>
          </mxGeometry>
        </mxCell>
        <mxCell id="y41tXXextySbHWO44SuQ-13" value="set to empty" style="shape=parallelogram;perimeter=parallelogramPerimeter;whiteSpace=wrap;html=1;fixedSize=1;hachureGap=4;fontFamily=Helvetica;rounded=0;" vertex="1" parent="1">
          <mxGeometry x="857.5" y="380" width="120" height="60" as="geometry" />
        </mxCell>
        <mxCell id="y41tXXextySbHWO44SuQ-42" style="edgeStyle=orthogonalEdgeStyle;rounded=0;orthogonalLoop=1;jettySize=auto;html=1;entryX=0.5;entryY=0;entryDx=0;entryDy=0;fontFamily=Helvetica;" edge="1" parent="1" source="y41tXXextySbHWO44SuQ-15" target="y41tXXextySbHWO44SuQ-17">
          <mxGeometry relative="1" as="geometry">
            <Array as="points">
              <mxPoint x="1230" y="470" />
              <mxPoint x="1008" y="470" />
            </Array>
          </mxGeometry>
        </mxCell>
        <mxCell id="y41tXXextySbHWO44SuQ-15" value="set to empty" style="shape=parallelogram;perimeter=parallelogramPerimeter;whiteSpace=wrap;html=1;fixedSize=1;hachureGap=4;fontFamily=Helvetica;rounded=0;" vertex="1" parent="1">
          <mxGeometry x="1170" y="320" width="120" height="60" as="geometry" />
        </mxCell>
        <mxCell id="y41tXXextySbHWO44SuQ-16" style="edgeStyle=orthogonalEdgeStyle;rounded=0;hachureGap=4;orthogonalLoop=1;jettySize=auto;html=1;exitX=0.5;exitY=1;exitDx=0;exitDy=0;fontFamily=Helvetica;" edge="1" parent="1" source="y41tXXextySbHWO44SuQ-17">
          <mxGeometry relative="1" as="geometry">
            <mxPoint x="1008" y="680" as="targetPoint" />
          </mxGeometry>
        </mxCell>
        <mxCell id="y41tXXextySbHWO44SuQ-17" value="update appearance" style="shape=parallelogram;perimeter=parallelogramPerimeter;whiteSpace=wrap;html=1;fixedSize=1;hachureGap=4;fontFamily=Helvetica;rounded=0;" vertex="1" parent="1">
          <mxGeometry x="918" y="560" width="180" height="60" as="geometry" />
        </mxCell>
        <mxCell id="y41tXXextySbHWO44SuQ-18" value="call function passed in with new state and coordinates" style="shape=parallelogram;perimeter=parallelogramPerimeter;whiteSpace=wrap;html=1;fixedSize=1;hachureGap=4;fontFamily=Helvetica;rounded=0;" vertex="1" parent="1">
          <mxGeometry x="917" y="680" width="182" height="60" as="geometry" />
        </mxCell>
        <mxCell id="y41tXXextySbHWO44SuQ-20" style="edgeStyle=orthogonalEdgeStyle;rounded=0;hachureGap=4;orthogonalLoop=1;jettySize=auto;html=1;entryX=0.5;entryY=0;entryDx=0;entryDy=0;fontFamily=Helvetica;" edge="1" parent="1" source="y41tXXextySbHWO44SuQ-19" target="y41tXXextySbHWO44SuQ-8">
          <mxGeometry relative="1" as="geometry" />
        </mxCell>
        <mxCell id="y41tXXextySbHWO44SuQ-22" style="edgeStyle=orthogonalEdgeStyle;rounded=0;hachureGap=4;orthogonalLoop=1;jettySize=auto;html=1;exitX=0.5;exitY=1;exitDx=0;exitDy=0;fontFamily=Helvetica;" edge="1" parent="1" source="y41tXXextySbHWO44SuQ-19" target="y41tXXextySbHWO44SuQ-21">
          <mxGeometry relative="1" as="geometry" />
        </mxCell>
        <mxCell id="y41tXXextySbHWO44SuQ-19" value="Block gets clicked" style="ellipse;whiteSpace=wrap;html=1;hachureGap=4;fontFamily=Helvetica;rounded=0;" vertex="1" parent="1">
          <mxGeometry x="948" y="-20" width="120" height="80" as="geometry" />
        </mxCell>
        <mxCell id="y41tXXextySbHWO44SuQ-28" style="edgeStyle=orthogonalEdgeStyle;rounded=0;hachureGap=4;orthogonalLoop=1;jettySize=auto;html=1;exitX=0.5;exitY=1;exitDx=0;exitDy=0;fontFamily=Helvetica;" edge="1" parent="1" source="y41tXXextySbHWO44SuQ-21" target="y41tXXextySbHWO44SuQ-27">
          <mxGeometry relative="1" as="geometry" />
        </mxCell>
        <mxCell id="y41tXXextySbHWO44SuQ-31" value="if filled" style="edgeLabel;html=1;align=center;verticalAlign=middle;resizable=0;points=[];hachureGap=4;fontFamily=Helvetica;rounded=0;" vertex="1" connectable="0" parent="y41tXXextySbHWO44SuQ-28">
          <mxGeometry x="-0.0471" relative="1" as="geometry">
            <mxPoint as="offset" />
          </mxGeometry>
        </mxCell>
        <mxCell id="y41tXXextySbHWO44SuQ-29" style="edgeStyle=orthogonalEdgeStyle;rounded=0;hachureGap=4;orthogonalLoop=1;jettySize=auto;html=1;exitX=0;exitY=1;exitDx=0;exitDy=0;entryX=0;entryY=0.5;entryDx=0;entryDy=0;fontFamily=Helvetica;" edge="1" parent="1" source="y41tXXextySbHWO44SuQ-21" target="y41tXXextySbHWO44SuQ-27">
          <mxGeometry relative="1" as="geometry">
            <Array as="points">
              <mxPoint x="1010" y="177" />
              <mxPoint x="1010" y="410" />
            </Array>
          </mxGeometry>
        </mxCell>
        <mxCell id="y41tXXextySbHWO44SuQ-30" value="if empty" style="edgeLabel;html=1;align=center;verticalAlign=middle;resizable=0;points=[];hachureGap=4;fontFamily=Helvetica;rounded=0;" vertex="1" connectable="0" parent="y41tXXextySbHWO44SuQ-29">
          <mxGeometry x="-0.0409" relative="1" as="geometry">
            <mxPoint as="offset" />
          </mxGeometry>
        </mxCell>
        <mxCell id="y41tXXextySbHWO44SuQ-21" value="right click" style="rhombus;whiteSpace=wrap;html=1;hachureGap=4;fontFamily=Helvetica;rounded=0;" vertex="1" parent="1">
          <mxGeometry x="1020" y="110" width="155" height="90" as="geometry" />
        </mxCell>
        <mxCell id="y41tXXextySbHWO44SuQ-41" style="edgeStyle=orthogonalEdgeStyle;rounded=0;orthogonalLoop=1;jettySize=auto;html=1;entryX=0.5;entryY=0;entryDx=0;entryDy=0;fontFamily=Helvetica;" edge="1" parent="1" source="y41tXXextySbHWO44SuQ-27" target="y41tXXextySbHWO44SuQ-17">
          <mxGeometry relative="1" as="geometry">
            <Array as="points">
              <mxPoint x="1097" y="470" />
              <mxPoint x="1008" y="470" />
            </Array>
          </mxGeometry>
        </mxCell>
        <mxCell id="y41tXXextySbHWO44SuQ-27" value="set to crossed" style="shape=parallelogram;perimeter=parallelogramPerimeter;whiteSpace=wrap;html=1;fixedSize=1;hachureGap=4;fontFamily=Helvetica;rounded=0;" vertex="1" parent="1">
          <mxGeometry x="1037.5" y="380" width="120" height="60" as="geometry" />
        </mxCell>
        <mxCell id="y41tXXextySbHWO44SuQ-37" value="Block v2" style="swimlane;whiteSpace=wrap;html=1;hachureGap=4;fontFamily=Helvetica;rounded=0;" vertex="1" parent="1">
          <mxGeometry x="700" y="-50" width="610" height="810" as="geometry" />
        </mxCell>
      </root>
    </mxGraphModel>
  </diagram>
  <diagram id="mw5ZM6ynEkptQgmR4tXI" name="Board">
    <mxGraphModel dx="1434" dy="836" grid="1" gridSize="10" guides="1" tooltips="1" connect="1" arrows="1" fold="1" page="0" pageScale="1" pageWidth="850" pageHeight="1100" math="0" shadow="0">
      <root>
        <mxCell id="0" />
        <mxCell id="1" parent="0" />
      </root>
    </mxGraphModel>
  </diagram>
</mxfile>
